<?xml version="1.0" standalone="no"?><!DOCTYPE svg PUBLIC "-//W3C//DTD SVG 1.1//EN" "http://www.w3.org/Graphics/SVG/1.1/DTD/svg11.dtd"><svg t="1535959943196" class="icon" style="" viewBox="0 0 1024 1024" version="1.1" xmlns="http://www.w3.org/2000/svg" p-id="20708" xmlns:xlink="http://www.w3.org/1999/xlink" width="48" height="48"><defs><style type="text/css"></style></defs><path d="M199.220572 59.441481v654.820207a291.745215 291.745215 0 0 1 332.872294-76.470662c78.398494 45.625353 152.941324 107.315971 273.109507 107.315971a333.514904 333.514904 0 0 0 203.707562-74.54283V45.304048a311.666144 311.666144 0 0 1-404.844681 26.989645A314.236586 314.236586 0 0 0 361.158445 10.603075C277.619066 32.451836 199.220572 59.441481 199.220572 59.441481M55.275797 1016.931283a53.979291 53.979291 0 0 1-53.979291-54.621901V54.300596a54.300596 54.300596 0 0 1 108.601192 0v908.008786a54.621901 54.621901 0 0 1-53.979291 53.979291" p-id="20709" fill="#d81e06"></path></svg>